<?xml version="1.0" encoding="UTF-8" standalone="no"?>
<svg
   fill="#ffffff"
   viewBox="0 0 46.366905 33.697475"
   width="46.366905"
   height="33.697475"
   version="1.1"
   id="svg12"
   sodipodi:docname="discord.svg"
   inkscape:version="1.2.2 (732a01da63, 2022-12-09)"
   xmlns:inkscape="http://www.inkscape.org/namespaces/inkscape"
   xmlns:sodipodi="http://sodipodi.sourceforge.net/DTD/sodipodi-0.dtd"
   xmlns="http://www.w3.org/2000/svg"
   xmlns:svg="http://www.w3.org/2000/svg">
  <defs
     id="defs16" />
  <sodipodi:namedview
     id="namedview14"
     pagecolor="#ffffff"
     bordercolor="#000000"
     borderopacity="0.25"
     inkscape:showpageshadow="2"
     inkscape:pageopacity="0.0"
     inkscape:pagecheckerboard="0"
     inkscape:deskcolor="#d1d1d1"
     showgrid="false"
     inkscape:zoom="16.58"
     inkscape:cx="23.160434"
     inkscape:cy="17.671894"
     inkscape:window-width="1920"
     inkscape:window-height="1009"
     inkscape:window-x="-8"
     inkscape:window-y="-8"
     inkscape:window-maximized="1"
     inkscape:current-layer="svg12" />
  <path
     d="m 40.486035,4.3324773 c -0.676,-1.021 -1.633,-1.802 -2.768,-2.256 -2.464,-0.988 -4.583,-1.64800003 -6.479,-2.02000003 -1.33,-0.26 -2.647,0.394 -3.28,1.62600003 l -0.158,0.308 c -1.404,-0.155 -2.895,-0.207 -4.593,-0.164 -1.741,-0.042 -3.237,0.009 -4.643,0.164 l -0.157,-0.308 c -0.633,-1.23200003 -1.952,-1.88500003 -3.279,-1.62500003 -1.896,0.371 -4.016,1.03100003 -6.4789997,2.02000003 -1.134,0.454 -2.091,1.234 -2.768,2.256 -4.721,7.1309997 -6.57099999,14.8229997 -5.65499999,23.5169997 0.032,0.305 0.202,0.578 0.461,0.741 3.63199999,2.29 6.77499999,3.858 9.89099969,4.936 1.303,0.455 2.748,-0.054 3.517,-1.229 l 1.371,-2.101 c -1.092,-0.412 -2.158,-0.9 -3.18,-1.483 -0.479,-0.273 -0.646,-0.884 -0.373,-1.363 0.273,-0.481 0.884,-0.65 1.364,-0.373 3.041,1.734 6.479,2.651 9.942,2.651 3.463,0 6.901,-0.917 9.942,-2.651 0.479,-0.277 1.09,-0.108 1.364,0.373 0.273,0.479 0.106,1.09 -0.373,1.363 -1.056,0.603 -2.16,1.105 -3.291,1.524 l 1.411,2.102 c 0.581,0.865 1.54,1.357 2.528,1.357 0.322,0 0.647,-0.053 0.963,-0.161 3.125,-1.079 6.274,-2.649 9.914,-4.944 0.259,-0.163 0.429,-0.437 0.461,-0.741 0.918,-8.695 -0.932,-16.388 -5.653,-23.5189997 z m -23.69,17.3329997 c -1.926,0 -3.511,-2.029 -3.511,-4.495 0,-2.466 1.585,-4.495 3.511,-4.495 1.926,0 3.511,2.029 3.511,4.495 0,2.466 -1.585,4.495 -3.511,4.495 z m 12.993,-0.026 c -1.908,0 -3.478,-2.041 -3.478,-4.522 0,-2.481 1.57,-4.522 3.478,-4.522 1.908,0 3.478,2.041 3.478,4.522 0,2.481 -1.57,4.522 -3.478,4.522 z"
     id="path10" />
</svg>
