<?xml version="1.0" encoding="UTF-8" standalone="no"?>
<svg
   fill="#ffffff"
   viewBox="0 0 52 52"
   width="52"
   height="52"
   version="1.1"
   id="svg11"
   sodipodi:docname="github.svg"
   inkscape:version="1.2.2 (732a01da63, 2022-12-09)"
   xmlns:inkscape="http://www.inkscape.org/namespaces/inkscape"
   xmlns:sodipodi="http://sodipodi.sourceforge.net/DTD/sodipodi-0.dtd"
   xmlns="http://www.w3.org/2000/svg"
   xmlns:svg="http://www.w3.org/2000/svg">
  <defs
     id="defs15" />
  <sodipodi:namedview
     id="namedview13"
     pagecolor="#ffffff"
     bordercolor="#000000"
     borderopacity="0.25"
     inkscape:showpageshadow="2"
     inkscape:pageopacity="0.0"
     inkscape:pagecheckerboard="0"
     inkscape:deskcolor="#d1d1d1"
     showgrid="false"
     inkscape:zoom="12.59375"
     inkscape:cx="25.965261"
     inkscape:cy="25.965261"
     inkscape:window-width="1920"
     inkscape:window-height="1009"
     inkscape:window-x="-8"
     inkscape:window-y="-8"
     inkscape:window-maximized="1"
     inkscape:current-layer="svg11" />
  <path
     d="M 26,0 C 11.641,0 0,11.641 0,26 0,38.277 8.512,48.56 19.955,51.286 19.363,51.145 18.776,50.987 18.2,50.807 V 44.85 c 0,0 -0.975,0.325 -2.275,0.325 C 12.288,45.175 10.777,41.93 10.4,40.3 10.171,39.307 9.573,38.366 8.931,37.791 8.164,37.107 7.805,37.105 7.8,36.871 7.79,36.38 8.458,36.4 8.775,36.4 c 1.625,0 2.857,1.729 3.429,2.623 1.417,2.207 2.938,2.577 3.721,2.577 0.975,0 1.817,-0.146 2.397,-0.426 C 18.59,39.286 19.43,37.604 20.8,36.4 14.703,35.181 10.4,31.684 10.4,26 c 0,-2.928 1.175,-5.619 3.133,-7.792 C 13.333,17.641 13,16.494 13,14.625 c 0,-1.235 0.086,-2.751 0.65,-4.225 0,0 3.708,0.026 7.205,3.338 C 22.469,13.268 24.196,13 26,13 c 1.804,0 3.531,0.268 5.145,0.738 3.497,-3.312 7.205,-3.338 7.205,-3.338 0.567,1.474 0.65,2.99 0.65,4.225 0,2.015 -0.268,3.19 -0.432,3.697 1.898,2.153 3.032,4.802 3.032,7.678 0,5.684 -4.303,9.181 -10.4,10.4 1.628,1.43 2.6,3.513 2.6,5.85 v 8.557 c -0.576,0.181 -1.162,0.338 -1.755,0.479 C 43.488,48.56 52,38.277 52,26 52,11.641 40.359,0 26,0 Z m 1.813,51.93 C 27.214,51.972 26.61,52 26,52 c 0.61,0 1.213,-0.029 1.813,-0.07 z m 3.973,-0.584 c -1.164,0.265 -2.357,0.451 -3.575,0.554 1.218,-0.103 2.411,-0.29 3.575,-0.554 z M 26,52 C 25.39,52 24.786,51.972 24.187,51.93 24.787,51.971 25.39,52 26,52 Z m -2.212,-0.1 c -1.217,-0.103 -2.411,-0.289 -3.574,-0.554 1.164,0.264 2.357,0.451 3.574,0.554 z"
     id="path9" />
</svg>
