<?xml version="1.0" encoding="UTF-8" standalone="no"?>
<svg
   viewBox="0 0 175.99161 191.75871"
   width="87.995804"
   height="95.879356"
   fill-rule="nonzero"
   version="1.1"
   id="svg8"
   sodipodi:docname="icons8-mastodon.svg"
   inkscape:version="1.2.2 (732a01da63, 2022-12-09)"
   xmlns:inkscape="http://www.inkscape.org/namespaces/inkscape"
   xmlns:sodipodi="http://sodipodi.sourceforge.net/DTD/sodipodi-0.dtd"
   xmlns="http://www.w3.org/2000/svg"
   xmlns:svg="http://www.w3.org/2000/svg">
  <defs
     id="defs12" />
  <sodipodi:namedview
     id="namedview10"
     pagecolor="#ffffff"
     bordercolor="#000000"
     borderopacity="0.25"
     inkscape:showpageshadow="2"
     inkscape:pageopacity="0.0"
     inkscape:pagecheckerboard="0"
     inkscape:deskcolor="#d1d1d1"
     showgrid="false"
     inkscape:zoom="6.4765625"
     inkscape:cx="44.004825"
     inkscape:cy="48.0193"
     inkscape:window-width="1920"
     inkscape:window-height="1009"
     inkscape:window-x="-8"
     inkscape:window-y="-8"
     inkscape:window-maximized="1"
     inkscape:current-layer="svg8" />
  <g
     fill="#ffffff"
     fill-rule="nonzero"
     stroke="none"
     stroke-width="1"
     stroke-linecap="butt"
     stroke-linejoin="miter"
     stroke-miterlimit="10"
     stroke-dasharray="none"
     stroke-dashoffset="0"
     font-family="none"
     font-weight="none"
     font-size="none"
     text-anchor="none"
     style="mix-blend-mode:normal"
     id="g6"
     transform="translate(-40,-32.247816)">
    <g
       transform="scale(8)"
       id="g4">
      <path
         d="M 15.9375,4.03125 C 12.917,4.0435 9.91792,4.42698 8.35742,5.14648 8.35742,5.14648 5,6.67485 5,11.88085 c 0,6.197 -0.0045,13.97938 5.5625,15.48438 2.132,0.573 3.96545,0.69633 5.43945,0.61133 C 18.67695,27.82556 20,27.00586 20,27.00586 L 19.91016,25.0293 c 0,0 -1.73386,0.61102 -3.88086,0.54102 -2.127,-0.075 -4.3678,-0.23462 -4.7168,-2.89062 -0.032,-0.247 -0.04787,-0.49709 -0.04687,-0.74609 4.507,1.119 8.3502,0.48738 9.4082,0.35938 2.954,-0.359 5.52552,-2.2113 5.85352,-3.9043 0.514,-2.668 0.4707,-6.50781 0.4707,-6.50781 0,-5.206 -3.35156,-6.73437 -3.35156,-6.73437 -1.6455,-0.7685 -4.68848,-1.12748 -7.70898,-1.11523 z m -3.23242,3.9707 c 1.03487,0.02775 2.0575,0.49075 2.6875,1.46875 l 0.60938,1.03516 0.60742,-1.03516 c 1.265,-1.967 4.10022,-1.84427 5.44922,-0.32227 1.244,1.448 0.9668,2.38256 0.9668,8.85156 v 0.002 h -2.44727 v -5.62891 c 0,-2.635 -3.35937,-2.73677 -3.35937,0.36523 v 3.26172 h -2.43164 v -3.26172 c 0,-3.102 -3.35742,-3.00219 -3.35742,-0.36719 v 5.62891 H 8.97657 c 0,-6.474 -0.2722,-7.41456 0.9668,-8.85156 0.6795,-0.766 1.72684,-1.17423 2.76172,-1.14648 z"
         id="path2" />
    </g>
  </g>
</svg>
