<?xml version="1.0" encoding="UTF-8" standalone="no"?>
<svg
   fill="#ffffff"
   viewBox="0 0 48.000001 48.000001"
   width="42.666668"
   height="42.666668"
   version="1.1"
   id="svg75"
   sodipodi:docname="reddit.svg"
   inkscape:version="1.2.2 (732a01da63, 2022-12-09)"
   xmlns:inkscape="http://www.inkscape.org/namespaces/inkscape"
   xmlns:sodipodi="http://sodipodi.sourceforge.net/DTD/sodipodi-0.dtd"
   xmlns="http://www.w3.org/2000/svg"
   xmlns:svg="http://www.w3.org/2000/svg">
  <defs
     id="defs79" />
  <sodipodi:namedview
     id="namedview77"
     pagecolor="#ffffff"
     bordercolor="#000000"
     borderopacity="0.25"
     inkscape:showpageshadow="2"
     inkscape:pageopacity="0.0"
     inkscape:pagecheckerboard="0"
     inkscape:deskcolor="#d1d1d1"
     showgrid="false"
     inkscape:zoom="12.953125"
     inkscape:cx="21.384801"
     inkscape:cy="21.384801"
     inkscape:window-width="1920"
     inkscape:window-height="1009"
     inkscape:window-x="-8"
     inkscape:window-y="-8"
     inkscape:window-maximized="1"
     inkscape:current-layer="svg75" />
  <path
     d="M 24,0 C 10.745,0 0,10.745 0,24 0,37.255 10.745,48 24,48 37.255,48 48,37.255 48,24 48,10.745 37.255,0 24,0 Z m 1.667969,9.585938 c 0.09506,-0.01727 0.194922,-0.01639 0.294922,0.0059 l 5.882812,1.175781 c 0.375,-0.656 1.0545,-1.097781 1.8125,-1.175781 1.319,-0.143 2.499578,0.811859 2.642578,2.130859 0.143,1.319 -0.809906,2.499578 -2.128906,2.642578 -1.319,0.143 -2.501531,-0.812859 -2.644531,-2.130859 l -5.134766,-1.080078 -1.55664,7.488281 c 3.299,0.072 6.508234,1.092125 9.240234,2.953125 0.621,-0.59 1.437875,-0.942656 2.296875,-0.972656 1.939,-0.065 3.560812,1.443953 3.632812,3.376953 0.024,1.349 -0.734453,2.588406 -1.939453,3.191406 0.024,0.352 0.024,0.704641 0,1.056641 0,5.381 -6.264234,9.748047 -13.990234,9.748047 -7.726,0 -13.988281,-4.373047 -13.988281,-9.748047 -0.024,-0.352 -0.024,-0.704641 0,-1.056641 -0.351,-0.155 -0.66936,-0.373859 -0.94336,-0.630859 -1.414,-1.325 -1.478297,-3.545125 -0.154297,-4.953125 1.325,-1.414 3.543172,-1.478297 4.951172,-0.154297 2.768,-1.873 6.020328,-2.899125 9.361328,-2.953125 l 1.771485,-8.328125 v -0.01367 c 0.0675,-0.3045 0.308562,-0.520469 0.59375,-0.572265 z M 18.40625,24 c -1.326,0 -2.400391,1.074391 -2.400391,2.400391 0,1.326 1.074391,2.402343 2.400391,2.402343 1.326,0 2.402344,-1.076343 2.402344,-2.402343 C 20.808594,25.074391 19.73225,24 18.40625,24 Z m 11.117188,0 c -1.326001,0 -2.400391,1.074391 -2.400391,2.400391 0,1.326 1.07439,2.402343 2.400391,2.402343 1.325999,0 2.402343,-1.076343 2.402343,-2.402343 C 31.925781,25.074391 30.849438,24 29.523438,24 Z m -10.9375,7.941406 c -0.145376,0 -0.288704,0.04994 -0.408204,0.148438 -0.275,0.227 -0.316843,0.640062 -0.08984,0.914062 1.706,1.282 3.794687,1.937657 5.929687,1.847656 2.136,0.09 4.223688,-0.564656 5.929688,-1.847656 v 0.09375 c 0.262,-0.257 0.268718,-0.686219 0.01172,-0.949218 -0.256,-0.263 -0.685265,-0.268719 -0.947265,-0.01172 -1.461,1.044 -3.228532,1.55789 -5.019531,1.46289 C 22.203187,33.683609 20.444,33.145844 19,32.089844 c -0.122,-0.0985 -0.268687,-0.148438 -0.414062,-0.148438 z"
     id="path73" />
</svg>
