<?xml version="1.0" encoding="UTF-8" standalone="no"?>
<svg
   fill="#ffffff"
   viewBox="0 0 43.890625 44"
   width="43.890625"
   height="44"
   version="1.1"
   id="svg103"
   sodipodi:docname="steam.svg"
   inkscape:version="1.2.2 (732a01da63, 2022-12-09)"
   xmlns:inkscape="http://www.inkscape.org/namespaces/inkscape"
   xmlns:sodipodi="http://sodipodi.sourceforge.net/DTD/sodipodi-0.dtd"
   xmlns="http://www.w3.org/2000/svg"
   xmlns:svg="http://www.w3.org/2000/svg">
  <defs
     id="defs107" />
  <sodipodi:namedview
     id="namedview105"
     pagecolor="#ffffff"
     bordercolor="#000000"
     borderopacity="0.25"
     inkscape:showpageshadow="2"
     inkscape:pageopacity="0.0"
     inkscape:pagecheckerboard="0"
     inkscape:deskcolor="#d1d1d1"
     showgrid="false"
     inkscape:zoom="16.58"
     inkscape:cx="21.833534"
     inkscape:cy="21.954162"
     inkscape:window-width="1920"
     inkscape:window-height="1009"
     inkscape:window-x="-8"
     inkscape:window-y="-8"
     inkscape:window-maximized="1"
     inkscape:current-layer="svg103" />
  <path
     d="M 21.890625,0 C 10.480625,0 1.1,8.680781 0,19.800781 l 11.191406,5.728516 C 12.321406,24.579297 13.790625,24 15.390625,24 h 0.05078 c 0.39,-0.6 0.838594,-1.350859 1.308594,-2.130859 0.98,-1.61 2.080156,-3.430079 3.160156,-4.830079 C 20.150156,12.569063 23.860625,9 28.390625,9 c 4.69,0 8.5,3.81 8.5,8.5 0,4.53 -3.569063,8.240469 -8.039062,8.480469 -1.4,1.08 -3.210079,2.18039 -4.830079,3.15039 -0.78,0.48 -1.530859,0.92836 -2.130859,1.31836 V 30.5 c 0,3.59 -2.91,6.5 -6.5,6.5 -3.59,0 -6.5,-2.91 -6.5,-6.5 0,-0.17 0.0095,-0.33 0.01953,-0.5 L 0.1699219,25.519531 C 1.8599219,35.999531 10.940625,44 21.890625,44 c 12.15,0 22,-9.85 22,-22 0,-12.15 -9.85,-22 -22,-22 z m 6.5,11 c -3.58,0 -6.5,2.92 -6.5,6.5 0,3.58 2.92,6.5 6.5,6.5 3.58,0 6.5,-2.92 6.5,-6.5 0,-3.58 -2.92,-6.5 -6.5,-6.5 z m 0,2 c 2.49,0 4.5,2.01 4.5,4.5 0,2.49 -2.01,4.5 -4.5,4.5 -2.49,0 -4.5,-2.01 -4.5,-4.5 0,-2.49 2.01,-4.5 4.5,-4.5 z m -13,13 c -0.79,0 -1.539687,0.200312 -2.179688,0.570312 l 3.320313,1.699219 c 1.23,0.63 1.709844,2.141094 1.089844,3.371094 C 17.171094,32.500625 16.300625,33 15.390625,33 15.000625,33 14.62,32.910469 14.25,32.730469 l -3.330078,-1.710938 c 0.26,2.24 2.160703,3.980469 4.470703,3.980469 2.49,0 4.5,-2.01 4.5,-4.5 0,-2.49 -2.01,-4.5 -4.5,-4.5 z"
     id="path101" />
</svg>
