<?xml version="1.0" encoding="UTF-8" standalone="no"?>
<svg
   fill="#ffffff"
   viewBox="0 0 50.121094 40.730469"
   width="50.121094"
   height="40.730469"
   version="1.1"
   id="svg117"
   sodipodi:docname="twitter.svg"
   inkscape:version="1.2.2 (732a01da63, 2022-12-09)"
   xmlns:inkscape="http://www.inkscape.org/namespaces/inkscape"
   xmlns:sodipodi="http://sodipodi.sourceforge.net/DTD/sodipodi-0.dtd"
   xmlns="http://www.w3.org/2000/svg"
   xmlns:svg="http://www.w3.org/2000/svg">
  <defs
     id="defs121" />
  <sodipodi:namedview
     id="namedview119"
     pagecolor="#ffffff"
     bordercolor="#000000"
     borderopacity="0.25"
     inkscape:showpageshadow="2"
     inkscape:pageopacity="0.0"
     inkscape:pagecheckerboard="0"
     inkscape:deskcolor="#d1d1d1"
     showgrid="false"
     inkscape:zoom="16.58"
     inkscape:cx="25.030157"
     inkscape:cy="19.360676"
     inkscape:window-width="1920"
     inkscape:window-height="1009"
     inkscape:window-x="-8"
     inkscape:window-y="-8"
     inkscape:window-maximized="1"
     inkscape:current-layer="svg117" />
  <path
     d="m 50.121094,4.820312 c -1.847656,0.820313 -3.828125,1.371094 -5.910156,1.621094 2.125,-1.273438 3.757812,-3.289063 4.523437,-5.6875 C 46.75,1.929687 44.542969,2.785156 42.203125,3.246093 40.328125,1.246093 37.65625,0 34.699219,0 29.019532,0 24.414063,4.601562 24.414063,10.28125 c 0,0.804687 0.09375,1.589843 0.269531,2.34375 C 16.136719,12.195312 8.5624998,8.101562 3.4882818,1.878906 c -0.886719,1.523437 -1.390625,3.289062 -1.390625,5.171875 0,3.566406 1.8125,6.714844 4.574218,8.5625 -1.6875,-0.05469 -3.273437,-0.519531 -4.660156,-1.289063 0,0.04297 0,0.08594 0,0.128907 0,4.984375 3.546875,9.136718 8.2460942,10.085937 -0.8593752,0.234375 -1.7695312,0.359375 -2.7070312,0.359375 -0.664063,0 -1.308594,-0.0625 -1.9375,-0.1875 1.3125,4.082031 5.1093752,7.0625 9.6054682,7.144531 -3.515625,2.757813 -7.9492182,4.398438 -12.7695312,4.398438 -0.832031,0 -1.648437,-0.04687 -2.4492188,-0.144531 4.5468748,2.921875 9.9531248,4.621093 15.761719,4.621093 18.914063,0 29.257813,-15.667968 29.257813,-29.253906 0,-0.445312 -0.01172,-0.894531 -0.02734,-1.332031 C 47,8.695312 48.742188,6.882812 50.121094,4.820312 Z"
     id="path115" />
</svg>
